<svg width="136" height="21" viewBox="0 0 136 21" fill="none" xmlns="http://www.w3.org/2000/svg">
<path fill-rule="evenodd" clip-rule="evenodd" d="M9.47273 12.9878C8.72507 13.1902 7.95073 13.3666 7.455 13.9633C8.17859 13.7213 8.97311 13.6062 9.47273 12.9878ZM56.6693 2.626C59.7015 2.72335 62.7167 2.44809 65.7411 2.37632C70.0777 2.27268 74.4144 2.14925 78.759 2.39186C81.428 2.54144 84.102 2.42127 86.7819 2.6401C93.0318 3.15096 99.2913 3.51078 105.517 4.30455C110.515 4.94186 115.519 5.52253 120.499 6.27759C124.912 6.94745 129.24 7.95455 133.585 8.8964C134.194 9.02827 134.793 9.21905 135.212 9.65864C134.979 10.1447 134.455 9.53029 134.239 9.95345C134.555 10.2955 135.669 10.055 135.337 10.7044C135.066 11.2354 134.351 11.6704 133.411 11.6078C132.105 11.5206 130.973 10.9483 129.711 10.753C124.11 9.88626 118.54 8.87359 112.884 8.29787C109.405 7.94377 105.93 7.45993 102.438 7.39289C100.502 7.35523 98.6418 6.79684 96.7084 6.94451C96.2334 6.98063 95.7546 6.75605 95.2971 7.1733C95.1273 7.32798 94.3836 7.60919 94.2996 6.83166C94.2817 6.66761 93.9423 6.72856 93.7322 6.7202C91.4624 6.6298 89.1655 6.29829 86.9309 6.4913C84.7557 6.67917 82.6092 6.45049 80.4499 6.5339C78.9242 6.59244 77.4166 5.98596 75.8333 6.14139C75.1798 6.2051 74.5081 6.132 73.8764 6.35621C73.6298 6.34111 73.3835 6.32654 73.1369 6.31144C71.4611 6.11084 69.7899 6.06551 68.1317 6.40379C66.3714 6.18949 64.6246 6.23645 62.8919 6.57312C61.0197 6.51184 59.1592 6.39052 57.3313 6.98752C56.572 7.23536 55.6747 7.14347 54.8469 7.24499C52.0274 7.5904 49.2127 7.96294 46.3927 8.30112C45.871 8.36373 45.3196 8.58842 44.8031 8.24608C43.3272 8.13686 41.9194 8.41044 40.5351 8.81379C39.1512 9.26968 37.6653 9.24309 36.2318 9.43728C34.3847 9.6878 32.5936 9.92417 30.864 10.6518C29.441 11.2503 27.7648 11.2232 26.2232 11.6219C22.854 12.4943 19.3705 13.2167 16.289 14.6258C12.9374 16.1582 9.20676 16.8561 5.99419 18.6203C5.17488 19.0704 4.50111 19.7046 3.5415 19.9883C2.56344 20.2769 0.985095 19.8895 0.377749 18.9172C-0.118975 18.1219 -0.0368938 17.2704 0.794023 16.5769C2.21724 15.3898 3.81858 14.4129 5.48212 13.5283C12.6399 9.72268 20.4083 7.21157 28.4338 5.2803C36.2739 3.39331 44.2555 2.13177 52.3433 1.3784C56.4596 0.995143 60.5945 0.905275 64.7277 0.740802C68.9802 0.571576 73.2293 0.45452 77.4831 0.596761C81.271 0.723519 85.0535 0.981522 88.8352 1.2243C93.2644 1.50801 97.6857 1.84505 102.082 2.34893C112.629 3.55752 123.149 4.93643 133.374 7.70141C134.063 7.88786 134.945 7.72077 135.437 8.49748C134.674 8.86115 133.94 8.67427 133.221 8.4881C127.956 7.12297 122.605 6.14331 117.213 5.26235C109.266 3.96355 101.236 3.35009 93.2327 2.53159C89.362 2.1357 85.4461 2.12807 81.5559 1.87819C76.4519 1.54946 71.3455 1.601 66.2441 1.67536C63.1931 1.71985 60.128 1.85353 57.1077 2.32359C56.8881 2.35791 56.6988 2.41544 56.6791 2.6508C56.1358 2.2631 55.536 2.50047 54.9709 2.54263C50.5698 2.87176 46.1977 3.39241 41.8354 3.98986C39.0972 4.36513 36.3976 4.90992 33.6723 5.33877C30.8041 5.78973 27.9932 6.57195 25.2159 7.36607C24.4292 7.5908 23.3219 7.432 22.8643 8.34267C21.566 8.03066 20.6565 8.77271 19.6529 9.25603C20.7563 9.0404 21.8667 8.84163 22.8506 8.31041C23.1388 8.27621 23.4394 8.27736 23.7137 8.2029C31.8206 5.98653 40.1034 4.47788 48.5228 3.52262C51.237 3.21436 53.9536 2.92452 56.6693 2.626Z" fill="#FFDBBD"/>
</svg>
