<svg width="246" height="60" viewBox="0 0 246 60" fill="none" xmlns="http://www.w3.org/2000/svg">
<path d="M50.1423 50.1423V50.8851C50.1467 52.1319 49.8913 53.366 49.3924 54.5087C48.6874 56.1407 47.5199 57.5304 46.0339 58.5063C44.5479 59.4822 42.8087 60.0015 41.0309 60H9.11574C7.91863 60.0003 6.73317 59.7648 5.6271 59.3068C4.52103 58.8489 3.51602 58.1775 2.66948 57.3311C1.82295 56.4846 1.15149 55.4797 0.693446 54.3737C0.235407 53.2677 -0.000227016 52.0822 4.27217e-06 50.8851V18.9655C-0.00115567 17.7684 0.233897 16.5829 0.691692 15.4768C1.14949 14.3708 1.82103 13.366 2.66784 12.5199C3.51465 11.6738 4.52008 11.0031 5.62653 10.5463C6.73298 10.0895 7.9187 9.85548 9.11574 9.85768H9.85771V30.7067L29.2941 50.1423H50.1423Z" fill="url(#paint0_linear_34_26)"/>
<g style="mix-blend-mode:multiply" opacity="0.2">
<g style="mix-blend-mode:multiply" opacity="0.2">
<path d="M50.1426 50.1423V50.8851C50.147 52.1319 49.8916 53.366 49.3927 54.5087H26.8361L6.18689 33.8594V10.3365C7.1305 10.0177 8.12004 9.85592 9.11604 9.85768H9.85801V30.7067L29.2944 50.1423H50.1426Z" fill="black"/>
</g>
</g>
<path d="M9.85535 9.8551V30.705L29.2909 50.1458H50.1461V9.8551H9.85535Z" fill="url(#paint1_linear_34_26)"/>
<path d="M60.0002 6.99193V43.1504C59.9998 44.5247 59.5947 45.8686 58.8354 47.0142C58.0761 48.1598 56.9962 49.0564 55.7306 49.5922C55.6273 49.6424 55.5206 49.6851 55.4111 49.7198C54.6408 49.9992 53.8277 50.1421 53.0083 50.1423H29.2943L9.85791 30.7068V6.99193C9.85765 6.0736 10.0384 5.16422 10.3898 4.31576C10.7411 3.4673 11.2562 2.69638 11.9056 2.04706C12.555 1.39774 13.326 0.882749 14.1744 0.531507C15.023 0.180263 15.9324 -0.00034642 16.8507 4.98828e-07H53.0083C53.9265 -0.000230772 54.8358 0.180463 55.6842 0.531759C56.5327 0.883057 57.3035 1.39807 57.9528 2.04738C58.6022 2.69668 59.1171 3.46755 59.4684 4.31596C59.8198 5.16436 60.0005 6.07368 60.0002 6.99193Z" fill="url(#paint2_linear_34_26)"/>
<g style="mix-blend-mode:screen" opacity="0.5">
<g style="mix-blend-mode:screen" opacity="0.5">
<path d="M60.0001 6.99193V34.458C60.0001 34.458 59.9446 33.8199 59.8725 32.71C59.8003 31.6001 59.6894 30.0123 59.6084 28.1121C59.5274 26.2118 59.4491 23.9859 59.4007 21.5989C59.3523 19.212 59.3373 16.6824 59.3215 14.144C59.3294 12.8749 59.3373 11.5978 59.3452 10.3524C59.3373 9.11574 59.4007 7.83864 59.3849 6.71292C59.3679 5.65376 59.091 4.615 58.5786 3.68784C58.1118 2.84571 57.476 2.10916 56.7109 1.52442C56.0441 1.03072 55.2958 0.65803 54.5 0.423354C53.8686 0.249658 53.2184 0.153019 52.5637 0.135544C51.4547 0.0642522 50.8236 0 50.8236 0H53.0108C53.9289 0.000115563 54.8379 0.181066 55.686 0.532517C56.534 0.883964 57.3046 1.39904 57.9536 2.04831C58.6027 2.69758 59.1175 3.46834 59.4686 4.31658C59.8197 5.1648 60.0003 6.0739 60.0001 6.99193Z" fill="white"/>
</g>
</g>
<g style="mix-blend-mode:multiply" opacity="0.2">
<g style="mix-blend-mode:multiply" opacity="0.2">
<path d="M55.7308 49.5922C55.6276 49.6424 55.5208 49.6851 55.4113 49.7198C54.641 49.9992 53.828 50.1421 53.0085 50.1423H50.1428V50.3104L49.1746 50.3342L42.5418 50.4935L29.2919 50.7012H29.0684L28.9012 50.534L19.1086 40.8919C15.8599 37.6591 12.6113 34.4342 9.38641 31.1776L9.1875 30.9778V30.7068C9.20334 23.7536 9.24295 16.81 9.35473 9.85771H9.8573V6.99193C9.85703 6.0736 10.0377 5.16422 10.3891 4.31576C10.7404 3.4673 11.2556 2.69638 11.905 2.04706C12.5543 1.39774 13.3254 0.882749 14.1738 0.531507C15.0224 0.180263 15.9318 -0.00034642 16.8501 4.98828e-07H26.0776L20.5864 0.16019L17.8403 0.231481C16.9478 0.203887 16.0559 0.300754 15.1901 0.519291C13.4994 0.996913 12.0627 2.11711 11.1872 3.64031C10.7544 4.38577 10.4775 5.21129 10.3731 6.06689C10.31 6.95944 10.2994 7.85493 10.3414 8.74872C10.3493 9.11574 10.3572 9.49068 10.3572 9.85771C10.469 16.7141 10.5086 23.5705 10.5245 30.4269C13.71 33.5884 16.8814 36.7655 20.0389 39.958L29.534 49.5922L42.5444 49.7911L49.1772 49.9513L50.1454 49.9751L52.4928 50.0384C53.0409 50.0736 53.5911 50.0603 54.1369 49.9988C54.6822 49.9259 55.2172 49.7894 55.7308 49.5922Z" fill="black"/>
</g>
</g>
<g style="mix-blend-mode:multiply" opacity="0.2">
<g style="mix-blend-mode:multiply" opacity="0.2">
<path d="M37.3792 60H9.11574C7.91862 60.0003 6.73317 59.7648 5.62709 59.3068C4.52102 58.8489 3.51601 58.1776 2.66948 57.3311C1.82295 56.4846 1.15148 55.4798 0.693441 54.3737C0.235404 53.2677 -0.000231118 52.0822 1.70101e-07 50.8851V21.2882C1.70101e-07 21.2882 0.0484075 22.413 0.136423 24.3934C0.183951 26.364 0.319496 29.1823 0.383747 32.5665C0.447998 35.9507 0.559777 39.8938 0.599384 44.1238C0.615227 46.2361 0.638991 48.4268 0.654833 50.6457C0.61785 52.7523 1.35934 54.7984 2.73727 56.3922C4.09362 57.9875 5.99917 59.0158 8.07716 59.2738C8.31656 59.3214 8.62021 59.3134 8.8913 59.3381L9.0911 59.346L9.1307 59.3539C9.1307 59.346 9.16239 59.3539 9.16239 59.3539H9.68168C10.2327 59.3618 10.7748 59.3618 11.3258 59.3698C12.411 59.3856 13.4892 59.3935 14.5428 59.4015C18.7728 59.4499 22.7159 59.5616 26.1 59.6171C29.4842 59.6725 32.3025 59.8169 34.2855 59.8723C36.2544 59.9507 37.3792 60 37.3792 60Z" fill="black"/>
</g>
</g>
<g style="mix-blend-mode:screen" opacity="0.3">
<g style="mix-blend-mode:screen" opacity="0.3">
<path d="M56.8076 6.99186V43.1503C56.8071 43.6508 56.7073 44.1462 56.5141 44.608C56.3209 45.0696 56.0381 45.4884 55.6819 45.84L14.1598 4.31884C14.5105 3.9613 14.9293 3.67752 15.3914 3.48419C15.8535 3.29087 16.3495 3.19191 16.8504 3.19313H53.008C54.0152 3.19406 54.981 3.59455 55.6934 4.30673C56.4057 5.01891 56.8064 5.98458 56.8076 6.99186Z" fill="white"/>
</g>
</g>
<path d="M83.25 37.625V41H71.1562V37.625H83.25ZM72.4688 18.25V41H68.1719V18.25H72.4688ZM81.6719 27.6406V30.9375H71.1562V27.6406H81.6719ZM83.2031 18.25V21.6406H71.1562V18.25H83.2031ZM95.5387 36.375C95.5387 36.0208 95.445 35.7031 95.2575 35.4219C95.07 35.1406 94.7158 34.8854 94.195 34.6562C93.6846 34.4167 92.9346 34.1927 91.945 33.9844C91.07 33.7969 90.2627 33.5625 89.5231 33.2812C88.7835 33 88.1481 32.6615 87.6169 32.2656C87.0856 31.8594 86.669 31.3854 86.3669 30.8438C86.0752 30.2917 85.9294 29.6562 85.9294 28.9375C85.9294 28.2396 86.0804 27.5833 86.3825 26.9688C86.6846 26.3438 87.1221 25.7969 87.695 25.3281C88.2679 24.849 88.9658 24.474 89.7887 24.2031C90.6117 23.9219 91.5387 23.7812 92.57 23.7812C94.0075 23.7812 95.2419 24.0156 96.2731 24.4844C97.3148 24.9531 98.1117 25.599 98.6637 26.4219C99.2158 27.2344 99.4919 28.151 99.4919 29.1719H95.3669C95.3669 28.724 95.2627 28.3177 95.0544 27.9531C94.8565 27.5885 94.5492 27.2969 94.1325 27.0781C93.7158 26.849 93.1898 26.7344 92.5544 26.7344C91.9815 26.7344 91.4971 26.8281 91.1012 27.0156C90.7158 27.2031 90.4242 27.4479 90.2262 27.75C90.0283 28.0521 89.9294 28.3854 89.9294 28.75C89.9294 29.0208 89.9815 29.2656 90.0856 29.4844C90.2002 29.6927 90.3825 29.8854 90.6325 30.0625C90.8825 30.2396 91.221 30.401 91.6481 30.5469C92.0856 30.6927 92.6221 30.8333 93.2575 30.9688C94.5179 31.2188 95.6169 31.5521 96.5544 31.9688C97.5023 32.375 98.2419 32.9167 98.7731 33.5938C99.3044 34.2708 99.57 35.1354 99.57 36.1875C99.57 36.9375 99.4085 37.625 99.0856 38.25C98.7627 38.8646 98.294 39.401 97.6794 39.8594C97.0648 40.3177 96.3304 40.6771 95.4762 40.9375C94.6221 41.1875 93.6585 41.3125 92.5856 41.3125C91.0335 41.3125 89.721 41.0365 88.6481 40.4844C87.5752 39.9219 86.7627 39.2135 86.2106 38.3594C85.6585 37.4948 85.3825 36.599 85.3825 35.6719H89.3356C89.3669 36.3281 89.544 36.8542 89.8669 37.25C90.1898 37.6458 90.596 37.9323 91.0856 38.1094C91.5856 38.276 92.1117 38.3594 92.6637 38.3594C93.2887 38.3594 93.8148 38.276 94.2419 38.1094C94.669 37.9323 94.9919 37.6979 95.2106 37.4062C95.4294 37.1042 95.5387 36.7604 95.5387 36.375ZM111.031 24.0938V27.0625H101.343V24.0938H111.031ZM103.937 19.9375H108.077V36.125C108.077 36.625 108.145 37.0104 108.281 37.2812C108.416 37.5521 108.619 37.7344 108.89 37.8281C109.161 37.9219 109.484 37.9688 109.859 37.9688C110.13 37.9688 110.38 37.9531 110.609 37.9219C110.838 37.8906 111.031 37.8594 111.187 37.8281L111.202 40.9219C110.859 41.0365 110.468 41.1302 110.031 41.2031C109.604 41.276 109.119 41.3125 108.577 41.3125C107.65 41.3125 106.838 41.1562 106.14 40.8438C105.442 40.5208 104.9 40.0052 104.515 39.2969C104.13 38.5781 103.937 37.6302 103.937 36.4531V19.9375ZM124.163 36.9844V24.0938H128.319V41H124.413L124.163 36.9844ZM124.694 33.4844L125.976 33.4531C125.976 34.5885 125.851 35.6354 125.601 36.5938C125.351 37.5521 124.96 38.3854 124.429 39.0938C123.908 39.7917 123.246 40.3385 122.444 40.7344C121.642 41.1198 120.694 41.3125 119.601 41.3125C118.767 41.3125 118.007 41.1979 117.319 40.9688C116.632 40.7292 116.038 40.3594 115.538 39.8594C115.049 39.349 114.668 38.6979 114.397 37.9062C114.127 37.1042 113.991 36.1406 113.991 35.0156V24.0938H118.116V35.0469C118.116 35.6094 118.179 36.0781 118.304 36.4531C118.439 36.8281 118.621 37.1354 118.851 37.375C119.09 37.6042 119.366 37.7708 119.679 37.875C120.002 37.9688 120.345 38.0156 120.71 38.0156C121.71 38.0156 122.496 37.8177 123.069 37.4219C123.653 37.0156 124.069 36.474 124.319 35.7969C124.569 35.1094 124.694 34.3385 124.694 33.4844ZM142.436 37.4062V17H146.592V41H142.842L142.436 37.4062ZM131.577 32.75V32.4219C131.577 31.1302 131.723 29.9583 132.014 28.9062C132.316 27.8438 132.754 26.9323 133.327 26.1719C133.9 25.4115 134.592 24.8229 135.405 24.4062C136.228 23.9896 137.16 23.7812 138.202 23.7812C139.212 23.7812 140.092 23.9844 140.842 24.3906C141.603 24.7969 142.249 25.375 142.78 26.125C143.322 26.875 143.754 27.7656 144.077 28.7969C144.4 29.8177 144.634 30.9427 144.78 32.1719V33.0625C144.634 34.2604 144.4 35.3594 144.077 36.3594C143.754 37.3594 143.322 38.2344 142.78 38.9844C142.249 39.724 141.603 40.2969 140.842 40.7031C140.082 41.1094 139.191 41.3125 138.171 41.3125C137.139 41.3125 136.212 41.099 135.389 40.6719C134.577 40.2448 133.884 39.6458 133.311 38.875C132.749 38.1042 132.316 37.1979 132.014 36.1562C131.723 35.1146 131.577 33.9792 131.577 32.75ZM135.717 32.4219V32.75C135.717 33.4792 135.78 34.1615 135.905 34.7969C136.03 35.4323 136.233 35.9948 136.514 36.4844C136.796 36.9635 137.155 37.3385 137.592 37.6094C138.04 37.8802 138.582 38.0156 139.217 38.0156C140.03 38.0156 140.697 37.8385 141.217 37.4844C141.749 37.1198 142.16 36.625 142.452 36C142.744 35.3646 142.931 34.651 143.014 33.8594V31.4062C142.973 30.7812 142.863 30.2031 142.686 29.6719C142.52 29.1406 142.28 28.6823 141.967 28.2969C141.665 27.9115 141.29 27.6094 140.842 27.3906C140.395 27.1719 139.863 27.0625 139.249 27.0625C138.613 27.0625 138.072 27.2031 137.624 27.4844C137.176 27.7552 136.811 28.1354 136.53 28.625C136.249 29.1146 136.04 29.6823 135.905 30.3281C135.78 30.974 135.717 31.6719 135.717 32.4219ZM159.959 37.4062V29.6094C159.959 29.0365 159.86 28.5417 159.662 28.125C159.465 27.7083 159.162 27.3854 158.756 27.1562C158.35 26.9271 157.834 26.8125 157.209 26.8125C156.657 26.8125 156.173 26.9062 155.756 27.0938C155.35 27.2812 155.037 27.5469 154.819 27.8906C154.6 28.224 154.491 28.6094 154.491 29.0469H150.35C150.35 28.349 150.517 27.6875 150.85 27.0625C151.183 26.4271 151.657 25.8646 152.272 25.375C152.897 24.875 153.642 24.4844 154.506 24.2031C155.381 23.9219 156.36 23.7812 157.444 23.7812C158.725 23.7812 159.866 24 160.866 24.4375C161.876 24.8646 162.668 25.5104 163.241 26.375C163.824 27.2396 164.116 28.3281 164.116 29.6406V37.0156C164.116 37.8594 164.168 38.5833 164.272 39.1875C164.386 39.7812 164.553 40.2969 164.772 40.7344V41H160.569C160.371 40.5729 160.22 40.0312 160.116 39.375C160.011 38.7083 159.959 38.0521 159.959 37.4062ZM160.537 30.7031L160.569 33.1562H157.959C157.314 33.1562 156.746 33.224 156.256 33.3594C155.767 33.4844 155.366 33.6719 155.053 33.9219C154.741 34.1615 154.506 34.4531 154.35 34.7969C154.194 35.1302 154.116 35.5104 154.116 35.9375C154.116 36.3542 154.209 36.7292 154.397 37.0625C154.595 37.3958 154.876 37.6615 155.241 37.8594C155.616 38.0469 156.053 38.1406 156.553 38.1406C157.282 38.1406 157.918 37.9948 158.459 37.7031C159.001 37.401 159.423 37.0365 159.725 36.6094C160.027 36.1823 160.189 35.776 160.209 35.3906L161.397 37.1719C161.251 37.599 161.032 38.0521 160.741 38.5312C160.449 39.0104 160.074 39.4583 159.616 39.875C159.157 40.2917 158.605 40.6354 157.959 40.9062C157.314 41.1771 156.564 41.3125 155.709 41.3125C154.616 41.3125 153.636 41.0938 152.772 40.6562C151.907 40.2188 151.225 39.6198 150.725 38.8594C150.225 38.099 149.975 37.2344 149.975 36.2656C149.975 35.3698 150.142 34.5781 150.475 33.8906C150.808 33.2031 151.303 32.625 151.959 32.1562C152.616 31.6771 153.428 31.3177 154.397 31.0781C155.376 30.8281 156.496 30.7031 157.756 30.7031H160.537ZM172.764 18.25V41H168.467V18.25H172.764ZM181.936 28.0781V31.4688H171.639V28.0781H181.936ZM183.139 18.25V21.6406H171.639V18.25H183.139ZM190.443 17V41H186.302V17H190.443ZM204.013 37.4062V29.6094C204.013 29.0365 203.914 28.5417 203.716 28.125C203.518 27.7083 203.216 27.3854 202.81 27.1562C202.404 26.9271 201.888 26.8125 201.263 26.8125C200.711 26.8125 200.227 26.9062 199.81 27.0938C199.404 27.2812 199.091 27.5469 198.872 27.8906C198.654 28.224 198.544 28.6094 198.544 29.0469H194.404C194.404 28.349 194.57 27.6875 194.904 27.0625C195.237 26.4271 195.711 25.8646 196.326 25.375C196.951 24.875 197.695 24.4844 198.56 24.2031C199.435 23.9219 200.414 23.7812 201.497 23.7812C202.779 23.7812 203.919 24 204.919 24.4375C205.93 24.8646 206.721 25.5104 207.294 26.375C207.878 27.2396 208.169 28.3281 208.169 29.6406V37.0156C208.169 37.8594 208.221 38.5833 208.326 39.1875C208.44 39.7812 208.607 40.2969 208.826 40.7344V41H204.622C204.425 40.5729 204.274 40.0312 204.169 39.375C204.065 38.7083 204.013 38.0521 204.013 37.4062ZM204.591 30.7031L204.622 33.1562H202.013C201.367 33.1562 200.8 33.224 200.31 33.3594C199.82 33.4844 199.419 33.6719 199.107 33.9219C198.794 34.1615 198.56 34.4531 198.404 34.7969C198.247 35.1302 198.169 35.5104 198.169 35.9375C198.169 36.3542 198.263 36.7292 198.451 37.0625C198.649 37.3958 198.93 37.6615 199.294 37.8594C199.669 38.0469 200.107 38.1406 200.607 38.1406C201.336 38.1406 201.971 37.9948 202.513 37.7031C203.055 37.401 203.477 37.0365 203.779 36.6094C204.081 36.1823 204.242 35.776 204.263 35.3906L205.451 37.1719C205.305 37.599 205.086 38.0521 204.794 38.5312C204.503 39.0104 204.128 39.4583 203.669 39.875C203.211 40.2917 202.659 40.6354 202.013 40.9062C201.367 41.1771 200.617 41.3125 199.763 41.3125C198.669 41.3125 197.69 41.0938 196.826 40.6562C195.961 40.2188 195.279 39.6198 194.779 38.8594C194.279 38.099 194.029 37.2344 194.029 36.2656C194.029 35.3698 194.195 34.5781 194.529 33.8906C194.862 33.2031 195.357 32.625 196.013 32.1562C196.669 31.6771 197.482 31.3177 198.451 31.0781C199.43 30.8281 200.55 30.7031 201.81 30.7031H204.591ZM221.505 36.375C221.505 36.0208 221.411 35.7031 221.224 35.4219C221.036 35.1406 220.682 34.8854 220.161 34.6562C219.651 34.4167 218.901 34.1927 217.911 33.9844C217.036 33.7969 216.229 33.5625 215.489 33.2812C214.75 33 214.114 32.6615 213.583 32.2656C213.052 31.8594 212.635 31.3854 212.333 30.8438C212.041 30.2917 211.896 29.6562 211.896 28.9375C211.896 28.2396 212.047 27.5833 212.349 26.9688C212.651 26.3438 213.088 25.7969 213.661 25.3281C214.234 24.849 214.932 24.474 215.755 24.2031C216.578 23.9219 217.505 23.7812 218.536 23.7812C219.974 23.7812 221.208 24.0156 222.239 24.4844C223.281 24.9531 224.078 25.599 224.63 26.4219C225.182 27.2344 225.458 28.151 225.458 29.1719H221.333C221.333 28.724 221.229 28.3177 221.021 27.9531C220.823 27.5885 220.515 27.2969 220.099 27.0781C219.682 26.849 219.156 26.7344 218.521 26.7344C217.948 26.7344 217.463 26.8281 217.068 27.0156C216.682 27.2031 216.39 27.4479 216.193 27.75C215.995 28.0521 215.896 28.3854 215.896 28.75C215.896 29.0208 215.948 29.2656 216.052 29.4844C216.166 29.6927 216.349 29.8854 216.599 30.0625C216.849 30.2396 217.187 30.401 217.614 30.5469C218.052 30.6927 218.588 30.8333 219.224 30.9688C220.484 31.2188 221.583 31.5521 222.521 31.9688C223.469 32.375 224.208 32.9167 224.739 33.5938C225.271 34.2708 225.536 35.1354 225.536 36.1875C225.536 36.9375 225.375 37.625 225.052 38.25C224.729 38.8646 224.26 39.401 223.646 39.8594C223.031 40.3177 222.297 40.6771 221.443 40.9375C220.588 41.1875 219.625 41.3125 218.552 41.3125C217 41.3125 215.687 41.0365 214.614 40.4844C213.541 39.9219 212.729 39.2135 212.177 38.3594C211.625 37.4948 211.349 36.599 211.349 35.6719H215.302C215.333 36.3281 215.51 36.8542 215.833 37.25C216.156 37.6458 216.562 37.9323 217.052 38.1094C217.552 38.276 218.078 38.3594 218.63 38.3594C219.255 38.3594 219.781 38.276 220.208 38.1094C220.635 37.9323 220.958 37.6979 221.177 37.4062C221.396 37.1042 221.505 36.7604 221.505 36.375ZM233.044 17V41H228.903V17H233.044ZM232.387 31.9375H231.169C231.169 30.7604 231.325 29.6771 231.637 28.6875C231.95 27.6979 232.393 26.8385 232.966 26.1094C233.539 25.3698 234.221 24.7969 235.012 24.3906C235.815 23.9844 236.7 23.7812 237.669 23.7812C238.502 23.7812 239.257 23.901 239.934 24.1406C240.622 24.3698 241.21 24.7396 241.7 25.25C242.19 25.7604 242.565 26.4271 242.825 27.25C243.096 28.0625 243.231 29.0521 243.231 30.2188V41H239.075V30.1875C239.075 29.4062 238.96 28.7917 238.731 28.3438C238.502 27.8854 238.174 27.5573 237.747 27.3594C237.33 27.1615 236.815 27.0625 236.2 27.0625C235.533 27.0625 234.96 27.1927 234.481 27.4531C234.002 27.7031 233.606 28.0521 233.294 28.5C232.992 28.9479 232.762 29.4635 232.606 30.0469C232.46 30.6302 232.387 31.2604 232.387 31.9375Z" fill="#3F2B3B"/>
<defs>
<linearGradient id="paint0_linear_34_26" x1="2.10598" y1="57.8939" x2="32.6427" y2="27.3573" gradientUnits="userSpaceOnUse">
<stop stop-color="#113FFB"/>
<stop offset="0.322" stop-color="#2B54FF"/>
<stop offset="1" stop-color="#92A7FF"/>
</linearGradient>
<linearGradient id="paint1_linear_34_26" x1="2.11949" y1="57.8817" x2="32.6598" y2="27.3413" gradientUnits="userSpaceOnUse">
<stop stop-color="#F0544C"/>
<stop offset="0.322" stop-color="#F0544C"/>
<stop offset="1" stop-color="#F0544C"/>
</linearGradient>
<linearGradient id="paint2_linear_34_26" x1="20.8892" y1="39.111" x2="68.374" y2="-8.37376" gradientUnits="userSpaceOnUse">
<stop stop-color="#F0544C"/>
<stop offset="0.162" stop-color="#FD675F"/>
<stop offset="0.307" stop-color="#FF7A73"/>
<stop offset="0.446" stop-color="#FF9691"/>
<stop offset="0.581" stop-color="#FF9F9A"/>
<stop offset="0.712" stop-color="#FFBEBB"/>
<stop offset="0.842" stop-color="#FFC1BE"/>
<stop offset="0.967" stop-color="#FDD3D1"/>
<stop offset="1" stop-color="white"/>
</linearGradient>
</defs>
</svg>
