<svg width="250" height="43" viewBox="0 0 250 43" fill="none" xmlns="http://www.w3.org/2000/svg">
<path d="M35.9353 35.9353V36.4677C35.9385 37.3613 35.7554 38.2457 35.3979 39.0646C34.8926 40.2342 34.0559 41.2302 32.991 41.9295C31.926 42.6289 30.6796 43.0011 29.4055 43H6.53295C5.67502 43.0003 4.82544 42.8315 4.03275 42.5033C3.24007 42.1751 2.51981 41.6939 1.91313 41.0873C1.30644 40.4807 0.825232 39.7605 0.496969 38.9678C0.168709 38.1752 -0.000162695 37.3256 3.06172e-06 36.4677V13.592C-0.000828228 12.7341 0.167626 11.8845 0.495713 11.0918C0.8238 10.2991 1.30507 9.57898 1.91195 8.97262C2.51883 8.36625 3.23939 7.8856 4.03235 7.55823C4.8253 7.23085 5.67507 7.06313 6.53295 7.06471H7.06469V22.0065L20.9941 35.9353H35.9353Z" fill="url(#paint0_linear_17_7725)"/>
<g style="mix-blend-mode:multiply" opacity="0.2">
<g style="mix-blend-mode:multiply" opacity="0.2">
<path d="M35.9355 35.9353V36.4677C35.9387 37.3613 35.7556 38.2457 35.3981 39.0646H19.2326L4.43396 24.266V7.40785C5.11021 7.17938 5.81938 7.06345 6.53318 7.06471H7.06493V22.0065L20.9944 35.9353H35.9355Z" fill="black"/>
</g>
</g>
<path d="M7.06299 7.06274V22.0052L20.9918 35.9378H35.938V7.06274H7.06299Z" fill="url(#paint1_linear_17_7725)"/>
<path d="M43.0001 5.01088V30.9244C42.9999 31.9094 42.7095 32.8725 42.1654 33.6935C41.6212 34.5145 40.8473 35.1571 39.9402 35.5411C39.8662 35.5771 39.7897 35.6077 39.7113 35.6325C39.1592 35.8327 38.5765 35.9352 37.9892 35.9353H20.9942L7.06482 22.0065V5.01088C7.06463 4.35275 7.19419 3.70103 7.446 3.09296C7.69774 2.4849 8.06693 1.93241 8.53232 1.46706C8.99771 1.00172 9.55027 0.632637 10.1583 0.380914C10.7665 0.129189 11.4182 -0.000248268 12.0763 3.57493e-07H37.9892C38.6473 -0.000165386 39.299 0.129332 39.907 0.381094C40.5151 0.632858 41.0675 1.00195 41.5328 1.46729C41.9982 1.93262 42.3673 2.48508 42.619 3.0931C42.8708 3.70113 43.0003 4.3528 43.0001 5.01088Z" fill="url(#paint2_linear_17_7725)"/>
<g style="mix-blend-mode:screen" opacity="0.5">
<g style="mix-blend-mode:screen" opacity="0.5">
<path d="M43.0001 5.01088V24.6949C43.0001 24.6949 42.9603 24.2376 42.9086 23.4422C42.8569 22.6467 42.7774 21.5088 42.7194 20.147C42.6613 18.7851 42.6052 17.1899 42.5705 15.4792C42.5358 13.7686 42.5251 11.9557 42.5137 10.1366C42.5194 9.22699 42.5251 8.31173 42.5308 7.41919C42.5251 6.53295 42.5705 5.61769 42.5591 4.81093C42.547 4.05186 42.3485 3.30742 41.9814 2.64295C41.6468 2.03942 41.1911 1.51157 40.6428 1.0925C40.165 0.738683 39.6287 0.471588 39.0583 0.303404C38.6058 0.178921 38.1399 0.109664 37.6706 0.0971401C36.8759 0.0460474 36.4236 0 36.4236 0H37.9911C38.649 8.28203e-05 39.3005 0.129764 39.9083 0.381637C40.5161 0.633507 41.0683 1.00264 41.5334 1.46795C41.9986 1.93327 42.3675 2.48564 42.6192 3.09355C42.8708 3.70144 43.0002 4.35296 43.0001 5.01088Z" fill="white"/>
</g>
</g>
<g style="mix-blend-mode:multiply" opacity="0.2">
<g style="mix-blend-mode:multiply" opacity="0.2">
<path d="M39.9404 35.5411C39.8664 35.5771 39.7899 35.6077 39.7114 35.6325C39.1594 35.8327 38.5767 35.9352 37.9894 35.9353H35.9356V36.0558L35.2418 36.0728L30.4882 36.187L20.9925 36.3358H20.8323L20.7125 36.216L13.6945 29.3059C11.3663 26.989 9.03807 24.6778 6.72691 22.344L6.58435 22.2008V22.0065C6.5957 17.0234 6.62409 12.0472 6.7042 7.06469H7.06437V5.01088C7.06418 4.35275 7.19368 3.70103 7.44549 3.09296C7.69729 2.4849 8.06648 1.93241 8.53187 1.46706C8.99726 1.00172 9.54982 0.632637 10.1579 0.380914C10.766 0.129189 11.4177 -0.000248268 12.0759 3.57494e-07H18.6889L14.7535 0.114802L12.7855 0.165895C12.1459 0.146119 11.5067 0.215541 10.8862 0.372158C9.67452 0.714455 8.64491 1.51726 8.01747 2.60889C7.70732 3.14314 7.50882 3.73476 7.43401 4.34794C7.38884 4.9876 7.38121 5.62937 7.4113 6.26991C7.41697 6.53295 7.42265 6.80166 7.42265 7.06469C7.50276 11.9784 7.53115 16.8922 7.5425 21.8059C9.82547 24.0717 12.0983 26.3486 14.3612 28.6366L21.166 35.5411L30.4901 35.6836L35.2437 35.7984L35.9375 35.8155L37.6198 35.8609C38.0126 35.8861 38.4069 35.8766 38.7981 35.8325C39.1889 35.7802 39.5723 35.6824 39.9404 35.5411Z" fill="black"/>
</g>
</g>
<g style="mix-blend-mode:multiply" opacity="0.2">
<g style="mix-blend-mode:multiply" opacity="0.2">
<path d="M26.7884 43H6.53295C5.67501 43.0003 4.82544 42.8315 4.03275 42.5033C3.24006 42.1751 2.5198 41.694 1.91312 41.0873C1.30644 40.4807 0.825225 39.7605 0.496966 38.9678C0.168706 38.1752 -0.000165635 37.3256 1.21906e-07 36.4677V15.2566C1.21906e-07 15.2566 0.034692 16.0627 0.0977696 17.482C0.131832 18.8943 0.228972 20.914 0.275019 23.3394C0.321066 25.7647 0.401173 28.5906 0.429558 31.6221C0.440912 33.1359 0.457943 34.7059 0.469297 36.2961C0.442793 37.8058 0.974196 39.2723 1.96171 40.4145C2.93376 41.5577 4.29941 42.2947 5.78863 42.4796C5.9602 42.5137 6.17782 42.508 6.3721 42.5257L6.51529 42.5313L6.54367 42.537C6.54367 42.5313 6.56638 42.537 6.56638 42.537H6.93854C7.3334 42.5427 7.72196 42.5427 8.11683 42.5484C8.89457 42.5597 9.66727 42.5654 10.4223 42.5711C13.4538 42.6058 16.2797 42.6859 18.705 42.7256C21.1304 42.7654 23.1501 42.8688 24.5712 42.9086C25.9823 42.9647 26.7884 43 26.7884 43Z" fill="black"/>
</g>
</g>
<g style="mix-blend-mode:screen" opacity="0.3">
<g style="mix-blend-mode:screen" opacity="0.3">
<path d="M40.7121 5.01077V30.9243C40.7118 31.283 40.6402 31.6381 40.5018 31.969C40.3633 32.2998 40.1606 32.5999 39.9053 32.8519L10.1478 3.0951C10.3992 2.83886 10.6993 2.63549 11.0305 2.49694C11.3616 2.35839 11.7171 2.28747 12.0761 2.28834H37.989C38.7109 2.28901 39.403 2.57603 39.9136 3.08642C40.4241 3.59681 40.7113 4.28888 40.7121 5.01077Z" fill="white"/>
</g>
</g>
<path d="M56.4455 16.3702V20.2984H62.7804V23.95H56.4455V28.2101H63.6103V32H51.7151V12.5804H63.6103V16.3702H56.4455ZM72.961 32.2213C71.6147 32.2213 70.4159 31.9908 69.3647 31.5297C68.3135 31.0687 67.4836 30.4416 66.875 29.6486C66.2664 28.8372 65.9253 27.9335 65.8515 26.9376H70.5266C70.5819 27.4724 70.8309 27.9058 71.2735 28.2378C71.7161 28.5698 72.2601 28.7357 72.9056 28.7357C73.4958 28.7357 73.9476 28.6251 74.2611 28.4038C74.5931 28.164 74.7591 27.8597 74.7591 27.4909C74.7591 27.0483 74.5285 26.7255 74.0675 26.5227C73.6064 26.3014 72.8595 26.0616 71.8268 25.8034C70.7202 25.5452 69.7981 25.2778 69.0604 25.0012C68.3227 24.7061 67.6865 24.2543 67.1517 23.6457C66.6168 23.0187 66.3494 22.1795 66.3494 21.1283C66.3494 20.2431 66.5892 19.4409 67.0687 18.7216C67.5666 17.9839 68.2859 17.403 69.2264 16.9788C70.1854 16.5547 71.3196 16.3426 72.629 16.3426C74.5654 16.3426 76.0869 16.8221 77.1934 17.7811C78.3184 18.7401 78.9639 20.0126 79.1299 21.5986H74.7591C74.6853 21.0638 74.4455 20.6396 74.0398 20.3261C73.6525 20.0126 73.1362 19.8558 72.4907 19.8558C71.9374 19.8558 71.5132 19.9665 71.2182 20.1878C70.9231 20.3906 70.7756 20.6765 70.7756 21.0453C70.7756 21.488 71.0061 21.8199 71.4671 22.0412C71.9466 22.2625 72.6843 22.4838 73.6802 22.7051C74.8236 23.0002 75.7549 23.2953 76.4742 23.5904C77.1934 23.867 77.8205 24.3281 78.3553 24.9735C78.9086 25.6006 79.1944 26.4489 79.2129 27.5185C79.2129 28.4222 78.9547 29.2337 78.4383 29.9529C77.9403 30.6537 77.2119 31.207 76.2529 31.6127C75.3123 32.0184 74.215 32.2213 72.961 32.2213ZM90.7102 27.9888V32H88.3035C86.5884 32 85.2513 31.5851 84.2923 30.7552C83.3333 29.9068 82.8538 28.5329 82.8538 26.6333V20.4921H80.9727V16.5639H82.8538V12.8017H87.5842V16.5639H90.6825V20.4921H87.5842V26.6887C87.5842 27.1497 87.6949 27.4817 87.9162 27.6845C88.1375 27.8874 88.5063 27.9888 89.0227 27.9888H90.7102ZM108.588 16.5639V32H103.857V29.8976C103.378 30.58 102.723 31.1332 101.893 31.5574C101.082 31.9631 100.178 32.166 99.1821 32.166C98.0018 32.166 96.9598 31.9078 96.0561 31.3914C95.1524 30.8566 94.4516 30.0912 93.9537 29.0954C93.4558 28.0995 93.2068 26.9284 93.2068 25.5821V16.5639H97.9095V24.9459C97.9095 25.9786 98.177 26.7809 98.7118 27.3526C99.2466 27.9243 99.9659 28.2101 100.87 28.2101C101.792 28.2101 102.52 27.9243 103.055 27.3526C103.59 26.7809 103.857 25.9786 103.857 24.9459V16.5639H108.588ZM111.045 24.2543C111.045 22.6683 111.34 21.2759 111.93 20.0771C112.539 18.8784 113.359 17.9563 114.392 17.3108C115.425 16.6653 116.578 16.3426 117.85 16.3426C118.864 16.3426 119.786 16.5547 120.616 16.9788C121.465 17.403 122.129 17.9747 122.608 18.694V11.5292H127.339V32H122.608V29.7869C122.165 30.5246 121.529 31.1148 120.699 31.5574C119.888 32 118.938 32.2213 117.85 32.2213C116.578 32.2213 115.425 31.8986 114.392 31.2531C113.359 30.5892 112.539 29.6578 111.93 28.4591C111.34 27.2419 111.045 25.8403 111.045 24.2543ZM122.608 24.2819C122.608 23.1016 122.276 22.1703 121.612 21.488C120.967 20.8056 120.174 20.4644 119.233 20.4644C118.293 20.4644 117.49 20.8056 116.826 21.488C116.181 22.1519 115.858 23.074 115.858 24.2543C115.858 25.4346 116.181 26.3751 116.826 27.0759C117.49 27.7583 118.293 28.0995 119.233 28.0995C120.174 28.0995 120.967 27.7583 121.612 27.0759C122.276 26.3936 122.608 25.4622 122.608 24.2819ZM129.82 24.2543C129.82 22.6683 130.115 21.2759 130.705 20.0771C131.314 18.8784 132.135 17.9563 133.167 17.3108C134.2 16.6653 135.353 16.3426 136.625 16.3426C137.713 16.3426 138.663 16.5639 139.475 17.0065C140.305 17.4491 140.941 18.03 141.383 18.7493V16.5639H146.114V32H141.383V29.8146C140.922 30.5338 140.277 31.1148 139.447 31.5574C138.636 32 137.686 32.2213 136.598 32.2213C135.344 32.2213 134.2 31.8986 133.167 31.2531C132.135 30.5892 131.314 29.6578 130.705 28.4591C130.115 27.2419 129.82 25.8403 129.82 24.2543ZM141.383 24.2819C141.383 23.1016 141.052 22.1703 140.388 21.488C139.742 20.8056 138.949 20.4644 138.009 20.4644C137.068 20.4644 136.266 20.8056 135.602 21.488C134.956 22.1519 134.634 23.074 134.634 24.2543C134.634 25.4346 134.956 26.3751 135.602 27.0759C136.266 27.7583 137.068 28.0995 138.009 28.0995C138.949 28.0995 139.742 27.7583 140.388 27.0759C141.052 26.3936 141.383 25.4622 141.383 24.2819Z" fill="#F2F0FE"/>
<path d="M161.21 12.774V15.3467H153.049V21.0177H159.412V23.5904H153.049V32H149.896V12.774H161.21ZM167.286 11.5292V32H164.133V11.5292H167.286ZM170.375 24.3096C170.375 22.7789 170.689 21.4234 171.316 20.2431C171.961 19.0628 172.828 18.1499 173.916 17.5044C175.023 16.8405 176.24 16.5086 177.568 16.5086C178.767 16.5086 179.809 16.7483 180.694 17.2278C181.598 17.6889 182.317 18.2698 182.852 18.9706V16.7575H186.033V32H182.852V29.7316C182.317 30.4509 181.588 31.0502 180.666 31.5297C179.744 32.0092 178.693 32.249 177.513 32.249C176.203 32.249 175.004 31.917 173.916 31.2531C172.828 30.5707 171.961 29.6302 171.316 28.4314C170.689 27.2143 170.375 25.8403 170.375 24.3096ZM182.852 24.3649C182.852 23.3137 182.63 22.4008 182.188 21.6263C181.763 20.8517 181.201 20.2615 180.5 19.8558C179.799 19.4501 179.043 19.2472 178.232 19.2472C177.42 19.2472 176.664 19.4501 175.963 19.8558C175.263 20.2431 174.691 20.824 174.248 21.5986C173.824 22.3547 173.612 23.2584 173.612 24.3096C173.612 25.3608 173.824 26.2829 174.248 27.0759C174.691 27.869 175.263 28.4775 175.963 28.9017C176.683 29.3074 177.439 29.5103 178.232 29.5103C179.043 29.5103 179.799 29.3074 180.5 28.9017C181.201 28.496 181.763 27.9058 182.188 27.1313C182.63 26.3382 182.852 25.4161 182.852 24.3649ZM195.708 32.249C194.509 32.249 193.43 32.0369 192.471 31.6127C191.53 31.1701 190.784 30.58 190.23 29.8423C189.677 29.0861 189.382 28.247 189.345 27.3249H192.609C192.665 27.9704 192.969 28.5144 193.522 28.957C194.094 29.3812 194.804 29.5933 195.652 29.5933C196.538 29.5933 197.22 29.4273 197.699 29.0954C198.197 28.745 198.446 28.3023 198.446 27.7675C198.446 27.1958 198.17 26.7716 197.616 26.495C197.082 26.2184 196.224 25.9141 195.044 25.5821C193.9 25.2686 192.969 24.9643 192.25 24.6692C191.53 24.3742 190.903 23.9223 190.369 23.3137C189.852 22.7051 189.594 21.9029 189.594 20.907C189.594 20.0956 189.834 19.3579 190.313 18.694C190.793 18.0116 191.475 17.4768 192.36 17.0895C193.264 16.7022 194.297 16.5086 195.459 16.5086C197.192 16.5086 198.585 16.9512 199.636 17.8364C200.705 18.7032 201.277 19.8927 201.351 21.405H198.197C198.142 20.7226 197.865 20.1786 197.367 19.7728C196.87 19.3671 196.196 19.1642 195.348 19.1642C194.518 19.1642 193.882 19.321 193.439 19.6345C192.997 19.948 192.775 20.363 192.775 20.8794C192.775 21.2851 192.923 21.6263 193.218 21.9029C193.513 22.1795 193.873 22.4008 194.297 22.5668C194.721 22.7144 195.348 22.908 196.178 23.1478C197.284 23.4428 198.188 23.7471 198.889 24.0606C199.608 24.3557 200.226 24.7983 200.742 25.3885C201.259 25.9786 201.526 26.7624 201.545 27.7399C201.545 28.6066 201.305 29.3812 200.825 30.0636C200.346 30.7459 199.663 31.2808 198.778 31.668C197.911 32.0553 196.888 32.249 195.708 32.249ZM212.836 16.5086C213.998 16.5086 215.031 16.7575 215.934 17.2555C216.857 17.7534 217.576 18.4911 218.092 19.4685C218.627 20.446 218.894 21.6263 218.894 23.0094V32H215.768V23.4797C215.768 22.115 215.427 21.073 214.745 20.3538C214.063 19.6161 213.131 19.2472 211.951 19.2472C210.771 19.2472 209.83 19.6161 209.129 20.3538C208.447 21.073 208.106 22.115 208.106 23.4797V32H204.952V11.5292H208.106V18.528C208.641 17.8825 209.314 17.3846 210.125 17.0342C210.955 16.6838 211.859 16.5086 212.836 16.5086Z" fill="white" fill-opacity="0.5"/>
<defs>
<linearGradient id="paint0_linear_17_7725" x1="1.50928" y1="41.4907" x2="23.3939" y2="19.6061" gradientUnits="userSpaceOnUse">
<stop stop-color="#113FFB"/>
<stop offset="0.322" stop-color="#2B54FF"/>
<stop offset="1" stop-color="#92A7FF"/>
</linearGradient>
<linearGradient id="paint1_linear_17_7725" x1="1.51896" y1="41.4818" x2="23.4062" y2="19.5945" gradientUnits="userSpaceOnUse">
<stop stop-color="#F0544C"/>
<stop offset="0.322" stop-color="#F0544C"/>
<stop offset="1" stop-color="#F0544C"/>
</linearGradient>
<linearGradient id="paint2_linear_17_7725" x1="14.9706" y1="28.0295" x2="49.0013" y2="-6.00119" gradientUnits="userSpaceOnUse">
<stop stop-color="#F0544C"/>
<stop offset="0.162" stop-color="#FD675F"/>
<stop offset="0.307" stop-color="#FF7A73"/>
<stop offset="0.446" stop-color="#FF9691"/>
<stop offset="0.581" stop-color="#FF9F9A"/>
<stop offset="0.712" stop-color="#FFBEBB"/>
<stop offset="0.842" stop-color="#FFC1BE"/>
<stop offset="0.967" stop-color="#FDD3D1"/>
<stop offset="1" stop-color="white"/>
</linearGradient>
</defs>
</svg>
