<svg width="60" height="60" viewBox="0 0 60 60" fill="none" xmlns="http://www.w3.org/2000/svg">
<path d="M50.1423 50.1423V50.8851C50.1467 52.1319 49.8913 53.366 49.3924 54.5087C48.6874 56.1407 47.5199 57.5304 46.0339 58.5063C44.5479 59.4822 42.8087 60.0015 41.0309 60H9.11574C7.91863 60.0003 6.73317 59.7648 5.6271 59.3068C4.52103 58.8489 3.51602 58.1775 2.66948 57.3311C1.82295 56.4846 1.15149 55.4797 0.693446 54.3737C0.235407 53.2677 -0.000227016 52.0822 4.27217e-06 50.8851V18.9655C-0.00115567 17.7684 0.233897 16.5829 0.691692 15.4768C1.14949 14.3708 1.82103 13.366 2.66784 12.5199C3.51465 11.6738 4.52008 11.0031 5.62653 10.5463C6.73298 10.0895 7.9187 9.85548 9.11574 9.85768H9.85771V30.7067L29.2941 50.1423H50.1423Z" fill="url(#paint0_linear_34_26)"/>
<g style="mix-blend-mode:multiply" opacity="0.2">
<g style="mix-blend-mode:multiply" opacity="0.2">
<path d="M50.1426 50.1423V50.8851C50.147 52.1319 49.8916 53.366 49.3927 54.5087H26.8361L6.18689 33.8594V10.3365C7.1305 10.0177 8.12004 9.85592 9.11604 9.85768H9.85801V30.7067L29.2944 50.1423H50.1426Z" fill="black"/>
</g>
</g>
<path d="M9.85535 9.8551V30.705L29.2909 50.1458H50.1461V9.8551H9.85535Z" fill="url(#paint1_linear_34_26)"/>
<path d="M60.0002 6.99193V43.1504C59.9998 44.5247 59.5947 45.8686 58.8354 47.0142C58.0761 48.1598 56.9962 49.0564 55.7306 49.5922C55.6273 49.6424 55.5206 49.6851 55.4111 49.7198C54.6408 49.9992 53.8277 50.1421 53.0083 50.1423H29.2943L9.85791 30.7068V6.99193C9.85765 6.0736 10.0384 5.16422 10.3898 4.31576C10.7411 3.4673 11.2562 2.69638 11.9056 2.04706C12.555 1.39774 13.326 0.882749 14.1744 0.531507C15.023 0.180263 15.9324 -0.00034642 16.8507 4.98828e-07H53.0083C53.9265 -0.000230772 54.8358 0.180463 55.6842 0.531759C56.5327 0.883057 57.3035 1.39807 57.9528 2.04738C58.6022 2.69668 59.1171 3.46755 59.4684 4.31596C59.8198 5.16436 60.0005 6.07368 60.0002 6.99193Z" fill="url(#paint2_linear_34_26)"/>
<g style="mix-blend-mode:screen" opacity="0.5">
<g style="mix-blend-mode:screen" opacity="0.5">
<path d="M60.0001 6.99193V34.458C60.0001 34.458 59.9446 33.8199 59.8725 32.71C59.8003 31.6001 59.6894 30.0123 59.6084 28.1121C59.5274 26.2118 59.4491 23.9859 59.4007 21.5989C59.3523 19.212 59.3373 16.6824 59.3215 14.144C59.3294 12.8749 59.3373 11.5978 59.3452 10.3524C59.3373 9.11574 59.4007 7.83864 59.3849 6.71292C59.3679 5.65376 59.091 4.615 58.5786 3.68784C58.1118 2.84571 57.476 2.10916 56.7109 1.52442C56.0441 1.03072 55.2958 0.65803 54.5 0.423354C53.8686 0.249658 53.2184 0.153019 52.5637 0.135544C51.4547 0.0642522 50.8236 0 50.8236 0H53.0108C53.9289 0.000115563 54.8379 0.181066 55.686 0.532517C56.534 0.883964 57.3046 1.39904 57.9536 2.04831C58.6027 2.69758 59.1175 3.46834 59.4686 4.31658C59.8197 5.1648 60.0003 6.0739 60.0001 6.99193Z" fill="white"/>
</g>
</g>
<g style="mix-blend-mode:multiply" opacity="0.2">
<g style="mix-blend-mode:multiply" opacity="0.2">
<path d="M55.7308 49.5922C55.6276 49.6424 55.5208 49.6851 55.4113 49.7198C54.641 49.9992 53.828 50.1421 53.0085 50.1423H50.1428V50.3104L49.1746 50.3342L42.5418 50.4935L29.2919 50.7012H29.0684L28.9012 50.534L19.1086 40.8919C15.8599 37.6591 12.6113 34.4342 9.38641 31.1776L9.1875 30.9778V30.7068C9.20334 23.7536 9.24295 16.81 9.35473 9.85771H9.8573V6.99193C9.85703 6.0736 10.0377 5.16422 10.3891 4.31576C10.7404 3.4673 11.2556 2.69638 11.905 2.04706C12.5543 1.39774 13.3254 0.882749 14.1738 0.531507C15.0224 0.180263 15.9318 -0.00034642 16.8501 4.98828e-07H26.0776L20.5864 0.16019L17.8403 0.231481C16.9478 0.203887 16.0559 0.300754 15.1901 0.519291C13.4994 0.996913 12.0627 2.11711 11.1872 3.64031C10.7544 4.38577 10.4775 5.21129 10.3731 6.06689C10.31 6.95944 10.2994 7.85493 10.3414 8.74872C10.3493 9.11574 10.3572 9.49068 10.3572 9.85771C10.469 16.7141 10.5086 23.5705 10.5245 30.4269C13.71 33.5884 16.8814 36.7655 20.0389 39.958L29.534 49.5922L42.5444 49.7911L49.1772 49.9513L50.1454 49.9751L52.4928 50.0384C53.0409 50.0736 53.5911 50.0603 54.1369 49.9988C54.6822 49.9259 55.2172 49.7894 55.7308 49.5922Z" fill="black"/>
</g>
</g>
<g style="mix-blend-mode:multiply" opacity="0.2">
<g style="mix-blend-mode:multiply" opacity="0.2">
<path d="M37.3792 60H9.11574C7.91862 60.0003 6.73317 59.7648 5.62709 59.3068C4.52102 58.8489 3.51601 58.1776 2.66948 57.3311C1.82295 56.4846 1.15148 55.4798 0.693441 54.3737C0.235404 53.2677 -0.000231118 52.0822 1.70101e-07 50.8851V21.2882C1.70101e-07 21.2882 0.0484075 22.413 0.136423 24.3934C0.183951 26.364 0.319496 29.1823 0.383747 32.5665C0.447998 35.9507 0.559777 39.8938 0.599384 44.1238C0.615227 46.2361 0.638991 48.4268 0.654833 50.6457C0.61785 52.7523 1.35934 54.7984 2.73727 56.3922C4.09362 57.9875 5.99917 59.0158 8.07716 59.2738C8.31656 59.3214 8.62021 59.3134 8.8913 59.3381L9.0911 59.346L9.1307 59.3539C9.1307 59.346 9.16239 59.3539 9.16239 59.3539H9.68168C10.2327 59.3618 10.7748 59.3618 11.3258 59.3698C12.411 59.3856 13.4892 59.3935 14.5428 59.4015C18.7728 59.4499 22.7159 59.5616 26.1 59.6171C29.4842 59.6725 32.3025 59.8169 34.2855 59.8723C36.2544 59.9507 37.3792 60 37.3792 60Z" fill="black"/>
</g>
</g>
<g style="mix-blend-mode:screen" opacity="0.3">
<g style="mix-blend-mode:screen" opacity="0.3">
<path d="M56.8076 6.99186V43.1503C56.8071 43.6508 56.7073 44.1462 56.5141 44.608C56.3209 45.0696 56.0381 45.4884 55.6819 45.84L14.1598 4.31884C14.5105 3.9613 14.9293 3.67752 15.3914 3.48419C15.8535 3.29087 16.3495 3.19191 16.8504 3.19313H53.008C54.0152 3.19406 54.981 3.59455 55.6934 4.30673C56.4057 5.01891 56.8064 5.98458 56.8076 6.99186Z" fill="white"/>
</g>
</g>
<defs>
<linearGradient id="paint0_linear_34_26" x1="2.10598" y1="57.8939" x2="32.6427" y2="27.3573" gradientUnits="userSpaceOnUse">
<stop stop-color="#113FFB"/>
<stop offset="0.322" stop-color="#2B54FF"/>
<stop offset="1" stop-color="#92A7FF"/>
</linearGradient>
<linearGradient id="paint1_linear_34_26" x1="2.11949" y1="57.8817" x2="32.6598" y2="27.3413" gradientUnits="userSpaceOnUse">
<stop stop-color="#F0544C"/>
<stop offset="0.322" stop-color="#F0544C"/>
<stop offset="1" stop-color="#F0544C"/>
</linearGradient>
<linearGradient id="paint2_linear_34_26" x1="20.8892" y1="39.111" x2="68.374" y2="-8.37376" gradientUnits="userSpaceOnUse">
<stop stop-color="#F0544C"/>
<stop offset="0.162" stop-color="#FD675F"/>
<stop offset="0.307" stop-color="#FF7A73"/>
<stop offset="0.446" stop-color="#FF9691"/>
<stop offset="0.581" stop-color="#FF9F9A"/>
<stop offset="0.712" stop-color="#FFBEBB"/>
<stop offset="0.842" stop-color="#FFC1BE"/>
<stop offset="0.967" stop-color="#FDD3D1"/>
<stop offset="1" stop-color="white"/>
</linearGradient>
</defs>
</svg>
